<?xml version="1.0" standalone="no"?>
<!DOCTYPE svg PUBLIC "-//W3C//DTD SVG 20010904//EN"
 "http://www.w3.org/TR/2001/REC-SVG-20010904/DTD/svg10.dtd">
<svg version="1.0" xmlns="http://www.w3.org/2000/svg"
 width="529.000000pt" height="471.000000pt" viewBox="0 0 529.000000 471.000000"
 preserveAspectRatio="xMidYMid meet">

<g transform="translate(0.000000,471.000000) scale(0.100000,-0.100000)"
fill="#000000" stroke="none">
<path d="M2963 4033 c131 -2 343 -2 470 0 128 1 21 2 -238 2 -258 0 -363 -1
-232 -2z"/>
<path d="M3865 4030 c72 -3 -156 -7 -506 -8 l-636 -2 -32 -64 c-17 -35 -28
-71 -25 -80 3 -9 2 -16 -4 -16 -14 0 -35 -57 -26 -71 4 -7 3 -10 -3 -6 -12 8
-37 -59 -27 -74 4 -7 3 -9 -3 -6 -5 3 -20 -7 -32 -24 -23 -31 -30 -79 -17
-114 4 -11 0 -8 -9 8 -8 15 -18 27 -21 27 -3 0 -3 -4 1 -9 3 -5 1 -12 -5 -16
-6 -4 -8 -11 -5 -16 4 -5 1 -9 -6 -9 -7 0 -3 -10 9 -23 22 -24 30 -67 12 -67
-5 0 -10 13 -10 29 0 16 -6 31 -15 35 -12 4 -15 -3 -15 -36 0 -23 -3 -38 -6
-35 -4 3 -16 -5 -27 -19 -17 -22 -18 -27 -6 -35 8 -5 9 -9 4 -9 -6 0 -16 -12
-23 -27 -7 -16 -23 -46 -36 -67 -24 -38 -26 -61 -10 -113 4 -15 2 -23 -6 -23
-7 0 -10 7 -6 16 4 11 2 15 -8 11 -11 -4 -13 -1 -9 10 4 10 2 14 -4 10 -16
-10 -23 -47 -10 -47 7 0 4 -5 -6 -11 -23 -14 -37 -50 -27 -70 5 -8 4 -21 -2
-30 -8 -11 -9 -11 -4 3 4 15 3 16 -14 6 -16 -11 -17 -14 -5 -21 17 -9 20 -37
4 -37 -6 0 -8 7 -5 16 4 10 1 14 -6 12 -7 -3 -13 -11 -13 -19 0 -8 -5 -17 -12
-22 -6 -4 -14 -21 -18 -38 -4 -17 -13 -42 -21 -57 -8 -16 -12 -40 -8 -57 3
-19 2 -25 -4 -17 -10 14 -13 11 -45 -40 -14 -23 -14 -26 -2 -22 9 4 17 -1 21
-10 7 -19 -4 -35 -14 -21 -15 21 -29 13 -30 -16 0 -16 4 -29 9 -29 5 0 9 -6 9
-14 0 -8 6 -16 13 -19 6 -2 9 -8 5 -12 -8 -8 -38 18 -38 34 0 5 -5 13 -12 17
-8 5 -9 -2 -5 -24 4 -22 3 -31 -5 -29 -7 1 -14 -9 -17 -23 -3 -14 -14 -37 -24
-52 -17 -24 -17 -29 -3 -57 9 -16 16 -38 15 -48 -1 -19 0 -20 -21 36 l-9 24
-16 -23 c-9 -12 -16 -35 -15 -50 0 -20 -5 -30 -20 -33 -11 -3 -17 -10 -14 -16
4 -5 2 -13 -4 -16 -7 -4 -3 -13 10 -25 11 -9 20 -24 20 -31 0 -9 -8 -5 -18 9
-16 21 -20 22 -31 8 -11 -13 -11 -16 3 -16 10 0 16 -9 16 -25 0 -18 -5 -25
-20 -25 -11 0 -20 -5 -20 -11 0 -6 -7 -17 -16 -26 -8 -9 -13 -22 -10 -29 3 -7
-4 -16 -15 -19 -13 -4 -18 -12 -15 -22 14 -37 17 -61 7 -67 -7 -4 -9 -1 -5 8
3 8 1 23 -6 33 -9 16 -10 15 -4 -6 5 -19 3 -23 -9 -18 -16 6 -31 -18 -21 -34
3 -6 0 -16 -6 -24 -6 -8 -9 -19 -5 -24 3 -7 0 -8 -9 -5 -13 5 -16 -2 -16 -33
0 -25 -7 -49 -20 -64 -11 -13 -23 -29 -28 -34 -5 -6 -7 -16 -4 -23 2 -6 -2
-12 -8 -12 -8 0 -10 -9 -6 -27 5 -22 4 -25 -5 -13 -8 12 -10 9 -5 -15 2 -17 0
-37 -6 -45 -8 -13 -9 -13 -5 1 3 9 1 22 -4 30 -6 10 -9 3 -9 -22 0 -22 -10
-48 -25 -69 -14 -19 -25 -42 -25 -53 0 -11 -4 -15 -12 -11 -6 4 -8 3 -5 -3 4
-6 2 -25 -4 -43 -9 -23 -14 -28 -20 -18 -6 8 -9 1 -9 -23 0 -22 -6 -39 -13
-42 -8 -3 -22 -22 -32 -44 -9 -21 -28 -60 -41 -86 -13 -27 -24 -57 -24 -67 0
-10 -7 -25 -15 -33 -8 -8 -11 -17 -8 -20 3 -3 -5 -22 -17 -41 -12 -20 -22 -49
-22 -66 -1 -20 -4 -26 -9 -18 -11 17 -31 -36 -22 -59 5 -13 3 -15 -12 -10 -15
6 -16 5 -5 -8 11 -13 11 -18 0 -28 -10 -9 -11 -9 -6 1 4 6 2 12 -5 12 -8 0 -9
-10 -5 -31 5 -25 3 -30 -9 -25 -9 3 -15 0 -15 -9 0 -8 -5 -15 -12 -15 -6 0 -8
-3 -5 -7 4 -3 2 -12 -4 -20 -6 -7 -8 -13 -4 -13 4 0 -2 -16 -14 -36 -12 -19
-21 -44 -21 -54 0 -10 -5 -22 -10 -25 -6 -4 -8 -10 -5 -15 3 -5 -4 -11 -15
-15 -15 -5 -20 -14 -18 -33 2 -19 -1 -26 -11 -24 -12 3 -12 0 -2 -12 10 -12 9
-15 -6 -19 -10 -3 288 -4 662 -3 l680 1 -657 2 c-362 2 -658 7 -658 11 0 13
29 48 30 37 0 -6 -5 -16 -12 -23 -10 -10 131 -12 650 -12 416 0 661 4 657 10
-11 17 -14 70 -4 70 5 0 9 13 9 30 0 16 5 41 12 55 9 20 9 34 -1 61 -10 26
-10 39 -2 47 8 8 11 4 11 -16 0 -15 5 -36 12 -46 9 -15 8 -26 -5 -54 -9 -19
-17 -43 -17 -52 0 -9 -5 -26 -11 -37 -8 -14 -8 -23 0 -29 6 -5 9 -6 6 -2 -3 3
2 17 10 30 9 13 12 23 8 23 -5 0 -3 4 3 8 21 13 53 92 48 120 -3 20 -2 23 6
12 5 -8 10 -13 11 -10 7 48 7 75 -2 92 -7 12 -7 18 -1 14 6 -3 13 0 15 6 4 9
6 8 6 -3 1 -9 8 -16 16 -16 8 0 12 4 9 8 -2 4 0 10 6 14 6 4 7 11 4 17 -4 6 1
17 10 24 21 15 35 81 15 69 -8 -5 -10 -4 -5 4 4 6 12 9 17 6 5 -4 9 1 9 10 0
10 5 13 13 9 7 -5 6 0 -3 11 -12 15 -12 17 -1 10 11 -6 13 -2 7 19 -5 22 -3
26 10 24 12 -2 20 7 26 30 5 17 13 32 18 32 5 0 7 7 4 15 -4 9 0 15 7 15 12 0
12 2 1 9 -11 7 -11 9 2 14 9 4 16 14 16 22 0 9 7 23 15 32 8 8 13 19 10 24 -4
5 -2 9 4 9 5 0 12 14 16 30 4 16 10 30 15 30 4 0 10 9 13 20 3 11 1 18 -4 14
-5 -3 -9 -1 -9 5 0 5 7 14 15 18 8 5 18 24 21 42 5 25 4 32 -4 27 -8 -5 -12 0
-12 13 0 24 26 18 33 -7 3 -12 5 -10 6 6 0 12 6 22 12 22 5 0 7 5 4 11 -4 6
-4 27 0 46 4 23 9 32 14 24 5 -8 17 6 34 39 14 27 22 50 17 50 -6 0 -10 4 -10
10 0 5 8 7 18 3 14 -5 15 -3 5 8 -17 18 -16 34 1 20 19 -16 28 11 20 55 -7 38
11 49 19 12 3 -13 5 -5 4 17 -1 22 -7 46 -14 53 -15 16 -18 92 -3 92 6 0 10
-6 11 -12 1 -19 8 -81 10 -94 4 -22 27 -10 24 13 -1 12 4 28 11 34 7 6 16 24
19 40 4 16 11 29 17 29 6 0 7 7 4 16 -3 8 -2 13 3 10 14 -9 30 48 19 67 -9 17
17 77 34 77 4 0 8 7 8 15 0 8 4 15 9 15 8 0 31 51 30 67 -1 3 6 10 15 15 24
13 20 31 -4 18 -14 -7 -20 -7 -20 0 0 5 6 10 14 10 25 0 58 57 52 88 -3 15 -2
41 4 57 9 27 9 26 4 -11 -3 -23 -2 -44 3 -47 8 -5 14 15 15 53 1 8 -3 29 -7
45 -8 27 -7 29 8 16 9 -7 14 -17 11 -22 -3 -5 0 -9 5 -9 6 0 11 9 11 20 0 11
4 20 10 20 13 0 48 72 43 88 -3 6 0 12 5 12 6 0 16 23 23 50 7 28 16 50 21 50
4 0 8 7 8 15 0 8 4 15 9 15 4 0 8 10 7 23 -1 12 -6 21 -11 20 -6 -1 -11 16
-12 38 -2 45 9 50 25 13 7 -14 8 -23 2 -19 -6 3 -7 -1 -4 -9 3 -9 9 -16 13
-16 10 0 31 46 31 66 0 9 9 29 21 45 11 16 18 37 15 45 -3 8 -2 12 4 9 16 -10
12 11 -5 25 -8 7 -15 17 -15 23 0 6 7 2 15 -9 15 -19 15 -19 30 1 9 11 13 25
11 32 -3 7 1 19 9 27 16 15 35 59 35 79 0 17 -17 -4 -23 -28 -2 -11 -4 3 -4
30 0 35 2 44 8 30 l8 -20 1 20 c1 17 3 17 11 -5 9 -23 11 -23 20 -7 6 10 12
28 13 40 6 43 18 77 26 72 10 -6 23 31 16 44 -4 5 -1 11 5 13 7 2 12 18 13 35
0 17 6 29 11 27 10 -4 61 95 68 131 2 11 9 19 15 18 7 -2 11 0 11 5 -3 20 2
42 14 54 7 7 21 36 31 63 11 28 31 73 47 100 16 30 26 61 24 78 -2 17 0 25 7
21 15 -10 28 17 15 31 -9 10 -14 10 -19 1 -5 -7 -8 -5 -8 6 0 9 6 19 13 21 6
3 -58 5 -143 4 l-155 -1 130 -6z m-492 -78 c356 2 647 0 647 -4 0 -5 -3 -7 -7
-6 -5 0 -15 -2 -23 -5 -8 -4 -300 -8 -648 -9 l-632 -3 0 25 c0 17 3 21 8 12 7
-10 139 -12 655 -10z m587 -62 c-11 -20 -30 -28 -30 -12 0 11 22 32 32 32 5 0
4 -9 -2 -20z m-1263 -12 c-3 -8 -6 -5 -6 6 -1 11 2 17 5 13 3 -3 4 -12 1 -19z
m1230 -38 c-3 -11 -1 -20 4 -20 5 0 9 -5 9 -11 0 -5 -4 -8 -9 -5 -5 3 -8 -5
-8 -19 0 -15 4 -22 11 -18 7 4 7 2 -1 -7 -6 -7 -16 -9 -22 -6 -15 10 -14 93 2
99 19 8 20 8 14 -13z m-1229 -51 c-12 -21 -25 -39 -30 -39 -11 0 -10 18 2 25
6 3 10 13 10 21 0 18 22 44 33 37 4 -2 -2 -22 -15 -44z m1149 -51 c-2 -13 -4
-3 -4 22 0 25 2 35 4 23 2 -13 2 -33 0 -45z m-1168 -69 c-11 -21 -29 -17 -29
7 0 9 5 25 11 37 l12 21 8 -23 c6 -13 5 -30 -2 -42z m1201 15 c0 -14 -4 -23
-10 -19 -5 3 -10 15 -10 26 0 10 5 19 10 19 6 0 10 -12 10 -26z m-20 -87 c0
-5 -4 -5 -10 -2 -5 3 -10 14 -10 23 0 15 2 15 10 2 5 -8 10 -19 10 -23z m-47
-14 c7 -12 -11 -53 -23 -53 -5 0 -10 14 -10 30 0 28 21 42 33 23z m-78 -34 c8
-36 1 -47 -20 -29 -22 19 -18 60 6 60 4 0 10 -14 14 -31z m-35 -128 c0 -22 -4
-43 -10 -46 -6 -4 -10 12 -10 39 0 25 5 46 10 46 6 0 10 -18 10 -39z m66 12
c-6 -13 -14 -23 -18 -23 -5 0 -8 -9 -8 -20 0 -11 -4 -20 -10 -20 -5 0 -10 -8
-10 -17 0 -14 -3 -14 -12 -5 -8 8 -9 15 -3 20 16 11 35 50 35 71 0 13 6 19 18
18 15 -1 17 -5 8 -24z m-1266 -43 c0 -27 -4 -50 -10 -50 -5 0 -10 8 -11 18 0
9 -2 25 -4 36 -4 22 4 46 16 46 5 0 9 -22 9 -50z m-30 -99 c0 -9 -23 -21 -41
-21 -4 0 -6 7 -3 15 7 16 44 21 44 6z m1179 -171 c0 -10 -3 -8 -9 5 -12 27
-12 43 0 25 5 -8 9 -22 9 -30z m-1297 -2 c-7 -7 -12 -8 -12 -2 0 14 12 26 19
19 2 -3 -1 -11 -7 -17z m48 -24 c0 -8 -5 -12 -10 -9 -6 4 -8 11 -5 16 9 14 15
11 15 -7z m1183 -11 c2 -10 8 -26 12 -35 4 -11 3 -18 -4 -18 -6 0 -11 7 -11
15 0 8 -4 15 -10 15 -5 0 -10 9 -10 20 0 25 16 26 23 3z m-33 -23 c0 -5 -4
-10 -10 -10 -5 0 -10 5 -10 10 0 6 5 10 10 10 6 0 10 -4 10 -10z m-1210 -67
c0 -35 -14 -44 -24 -17 -8 21 -8 59 1 67 11 11 23 -15 23 -50z m-56 -34 c-3
-5 -10 -7 -15 -3 -5 3 -7 10 -3 15 3 5 10 7 15 3 5 -3 7 -10 3 -15z m-47 -101
c4 -28 -6 -18 -12 12 -2 12 -1 20 2 16 4 -4 8 -16 10 -28z m-37 -78 c0 -5 -5
-10 -11 -10 -5 0 -7 5 -4 10 3 6 8 10 11 10 2 0 4 -4 4 -10z m1200 -5 c0 -8
-4 -15 -10 -15 -5 0 -10 7 -10 15 0 8 5 15 10 15 6 0 10 -7 10 -15z m-1160
-55 c0 -16 -4 -30 -10 -30 -5 0 -10 14 -10 30 0 17 5 30 10 30 6 0 10 -13 10
-30z m1190 -5 c10 -25 16 -31 23 -23 6 10 7 9 4 -2 -7 -27 -32 -16 -44 20 -15
42 -15 40 -5 40 5 0 14 -16 22 -35z m-1217 -47 c8 -28 -4 -47 -14 -22 -11 27
-11 44 0 44 5 0 11 -10 14 -22z m1197 -3 c7 -14 10 -28 7 -32 -8 -8 -36 26
-37 45 0 20 16 14 30 -13z m-125 -232 c4 -21 9 -45 11 -55 3 -9 1 -19 -4 -22
-6 -3 -13 9 -16 28 -4 19 -13 39 -21 46 -21 18 -19 40 5 40 14 0 21 -9 25 -37z
m50 27 c3 -5 1 -10 -4 -10 -6 0 -11 5 -11 10 0 6 2 10 4 10 3 0 8 -4 11 -10z
m-115 -76 c0 -13 -4 -24 -10 -24 -5 0 -10 14 -10 31 0 17 4 28 10 24 6 -3 10
-17 10 -31z m-1180 -8 c0 -14 -4 -28 -10 -31 -6 -4 -10 7 -10 24 0 17 5 31 10
31 6 0 10 -11 10 -24z m1224 -57 c-3 -5 -10 -7 -15 -3 -5 3 -7 10 -3 15 3 5
10 7 15 3 5 -3 7 -10 3 -15z m-44 -50 c0 -11 -4 -18 -10 -14 -5 3 -7 12 -3 20
7 21 13 19 13 -6z m5 -79 c3 -5 1 -10 -4 -10 -6 0 -11 5 -11 10 0 6 2 10 4 10
3 0 8 -4 11 -10z m-1302 -131 c3 -9 1 -23 -4 -30 -8 -14 -9 -12 -23 34 -2 8 2
14 9 14 8 0 16 -8 18 -18z m-55 -52 c-7 -15 -16 -27 -20 -27 -12 0 -10 28 3
52 16 30 32 8 17 -25z m1192 13 c0 -10 -4 -22 -10 -25 -6 -4 -10 7 -10 25 0
18 4 29 10 25 6 -3 10 -15 10 -25z m-1140 -51 c0 -11 -4 -17 -10 -14 -5 3 -10
13 -10 21 0 8 5 14 10 14 6 0 10 -9 10 -21z m1140 -39 c0 -10 -4 -22 -10 -25
-6 -4 -10 7 -10 25 0 18 4 29 10 25 6 -3 10 -15 10 -25z m-1165 -41 c9 -27
-12 -50 -25 -29 -14 22 -12 50 4 50 8 0 18 -9 21 -21z m-75 -35 c0 -17 -5 -24
-20 -24 -23 0 -23 0 -10 35 12 31 30 24 30 -11z m1144 -99 c3 -8 1 -15 -3 -15
-5 0 -14 -13 -20 -30 -12 -35 -36 -42 -26 -7 9 33 27 67 36 67 4 0 9 -7 13
-15z m-1213 -48 c-13 -13 -15 1 -4 30 7 17 8 17 11 -1 2 -10 -1 -23 -7 -29z
m1154 -103 c-11 -8 -19 -17 -17 -20 2 -2 2 -10 -1 -17 -2 -6 -4 2 -4 18 -1 37
15 61 31 45 8 -8 6 -15 -9 -26z m-1208 -15 c-8 -62 -26 -71 -22 -12 3 57 2 53
16 53 8 0 10 -14 6 -41z m63 -44 c0 -19 -4 -35 -10 -35 -11 0 -13 30 -4 54 10
25 14 19 14 -19z m1153 -20 c4 -8 2 -17 -3 -20 -6 -4 -10 3 -10 14 0 25 6 27
13 6z m-1332 -72 c-12 -20 -14 -14 -5 12 4 9 9 14 11 11 3 -2 0 -13 -6 -23z
m-9 -82 c-5 -3 -13 -21 -17 -38 -8 -39 -25 -44 -25 -8 0 14 5 25 10 25 6 0 10
14 10 31 0 17 4 28 10 24 6 -3 11 2 11 12 1 10 4 5 6 -11 3 -16 0 -32 -5 -35z
m1218 -30 c0 -6 -4 -12 -9 -16 -5 -3 -12 -19 -16 -35 -9 -39 -25 -39 -25 0 0
20 5 30 15 30 8 0 15 7 15 15 0 8 5 15 10 15 6 0 10 -4 10 -9z m34 -18 c-2
-41 -3 -43 -14 -43 -14 0 -13 43 2 58 7 7 12 12 13 12 0 0 0 -12 -1 -27z
m-1244 -88 c0 -19 -4 -37 -10 -40 -6 -4 -10 12 -10 40 0 28 4 44 10 40 6 -3
10 -21 10 -40z m1153 -67 c-7 -15 -9 -9 -10 29 -1 44 0 46 9 20 6 -18 7 -37 1
-49z m-1233 33 c0 -4 -7 -8 -15 -8 -16 0 -20 9 -9 20 8 8 24 -1 24 -12z m1240
-101 c0 -5 -5 -10 -11 -10 -5 0 -7 5 -4 10 3 6 8 10 11 10 2 0 4 -4 4 -10z
m-1302 -82 c1 -37 -1 -40 -9 -19 -8 20 -5 61 5 61 2 0 3 -19 4 -42z m-18 -88
c0 -20 -5 -30 -15 -30 -16 0 -19 17 -9 44 10 26 24 18 24 -14z m-60 -4 c0 -3
-4 -8 -10 -11 -5 -3 -10 -1 -10 4 0 6 5 11 10 11 6 0 10 -2 10 -4z"/>
<path d="M4056 4025 c-3 -8 -1 -15 4 -15 6 0 10 7 10 15 0 8 -2 15 -4 15 -2 0
-6 -7 -10 -15z"/>
<path d="M3246 2241 c-13 -14 -14 -21 -5 -27 8 -4 10 -3 5 4 -4 7 -3 12 2 12
6 0 12 7 16 15 7 20 3 19 -18 -4z"/>
</g>
</svg>
