<svg version="1.1" id="Layer_1" xmlns="http://www.w3.org/2000/svg" xmlns:xlink="http://www.w3.org/1999/xlink" x="0px" y="0px"
	 width="100%" viewBox="0 0 529 471" enable-background="new 0 0 529 471" xml:space="preserve">
<path fill="#000000" opacity="1.000000" stroke="none" 
	d="
M319.000000,472.000000 
	C212.666687,472.000000 106.833382,472.000000 1.000057,472.000000 
	C1.000038,315.000061 1.000038,158.000122 1.000019,1.000141 
	C177.333237,1.000094 353.666473,1.000094 529.999756,1.000047 
	C529.999878,157.999863 529.999878,314.999725 529.999939,471.999786 
	C459.833344,472.000000 389.666656,472.000000 319.000000,472.000000 
M329.687042,249.881424 
	C329.827240,249.285843 329.967468,248.690262 330.756348,247.828506 
	C330.861206,246.909149 330.966064,245.989792 331.764496,244.814560 
	C332.561432,242.539932 333.358368,240.265289 334.810974,237.687607 
	C336.528534,233.905975 338.336426,230.162277 339.943420,226.334229 
	C342.634460,219.923843 345.197296,213.459656 348.111206,206.369629 
	C349.397461,203.976593 350.683746,201.583557 352.654755,198.877640 
	C353.802277,195.944580 354.949829,193.011536 356.766388,189.780289 
	C358.778412,184.887726 360.790405,179.995148 362.978729,174.360962 
	C370.331543,158.160248 377.711517,141.971771 385.024384,125.753044 
	C388.128815,118.867981 391.092560,111.919472 394.698395,104.787064 
	C394.827576,104.190178 394.956787,103.593285 395.015961,103.005882 
	C395.015961,103.005882 395.034302,103.074089 395.736633,102.841194 
	C398.418915,96.699348 401.101196,90.557503 403.964935,83.633133 
	C405.655609,79.132835 407.346283,74.632538 409.685730,69.840027 
	C411.164490,65.437683 407.539185,67.091904 406.050781,67.088394 
	C365.293304,66.992203 324.535583,67.007980 283.777893,67.004082 
	C271.622345,67.002914 271.622345,67.001549 266.289032,78.130646 
	C265.488831,80.056664 264.688599,81.982681 263.219330,84.199402 
	C261.871368,87.441566 260.523376,90.683731 258.991241,94.665192 
	C256.629608,100.753082 254.267960,106.840965 251.246002,113.199699 
	C249.711166,116.378944 248.116776,119.531021 246.651550,122.742027 
	C239.414841,138.601303 232.173965,154.458908 225.008804,170.350555 
	C218.228485,185.388611 211.532181,200.464584 204.814758,215.530945 
	C201.218170,223.597687 197.655029,231.679337 193.393906,240.118912 
	C192.612167,241.929535 191.830414,243.740158 191.036133,245.520950 
	C191.036133,245.520950 191.065735,245.507858 190.422028,246.016464 
	C190.293930,246.524384 190.165833,247.032318 190.037018,247.513458 
	C190.037018,247.513458 190.057343,247.496033 189.459763,248.001740 
	C188.943329,249.668167 188.426895,251.334610 187.980591,252.991699 
	C187.980591,252.991699 187.958923,252.924347 187.334915,253.119339 
	C187.193512,253.742767 187.052109,254.366180 186.981445,254.991974 
	C186.981445,254.991974 186.945129,254.931229 186.313126,255.139877 
	C186.266388,255.776764 186.219635,256.413635 186.017899,257.776398 
	C180.810181,269.228271 175.639359,280.697113 170.383606,292.126892 
	C165.800018,302.094971 160.990158,311.960754 156.517456,321.977631 
	C151.191315,333.905884 146.118149,345.947144 140.280457,358.232605 
	C139.208176,360.670563 138.135895,363.108551 137.031219,365.512878 
	C137.031219,365.512878 137.077866,365.510803 136.473618,365.996094 
	C135.383560,368.588989 134.293488,371.181915 133.022552,374.529419 
	C129.045578,383.541077 125.068604,392.552704 120.388641,402.104248 
	C118.917656,406.423737 122.393707,404.910034 123.995323,404.912659 
	C167.648453,404.984436 211.301758,404.978333 254.954956,404.928101 
	C256.234772,404.926605 257.513885,404.307098 259.128204,403.330444 
	C259.790344,402.422485 260.630249,401.595642 261.087402,400.594116 
	C266.094513,389.624329 271.080109,378.644318 275.996735,367.633698 
	C283.762634,350.242310 291.474213,332.826691 299.203094,315.418823 
	C303.840454,304.974121 308.467041,294.524658 313.743866,283.739136 
	C316.142029,278.241638 318.540192,272.744141 321.479126,267.028442 
	C321.672089,266.713745 321.865082,266.399017 322.004669,266.022827 
	C322.004669,266.022827 322.073822,266.065094 322.768097,265.808777 
	C323.884888,262.905090 325.001648,260.001404 326.704590,256.886292 
	C326.844513,256.294098 326.984467,255.701920 327.762360,254.825409 
	C327.870758,253.909973 327.979156,252.994537 328.680725,251.877808 
	C328.818878,251.280670 328.957062,250.683533 329.687042,249.881424 
z"/>
<path fill="#2D96F3" opacity="1.000000" stroke="none" 
	d="
M194.076797,239.754272 
	C197.655029,231.679337 201.218170,223.597687 204.814758,215.530945 
	C211.532181,200.464584 218.228485,185.388611 225.008804,170.350555 
	C232.173965,154.458908 239.414841,138.601303 246.651550,122.742027 
	C248.116776,119.531021 249.711166,116.378944 251.640579,113.111832 
	C252.035156,113.023972 252.150574,113.134987 252.130753,113.504028 
	C252.117020,115.737473 252.404114,117.658127 252.045578,119.449562 
	C251.724121,121.055626 250.049789,122.542458 250.103394,124.041443 
	C250.226334,127.479401 251.120895,130.883087 251.524872,134.321503 
	C251.655502,135.433365 251.233505,136.610123 251.064301,137.757187 
	C250.567627,137.741577 250.070969,137.725967 249.574295,137.710358 
	C249.061096,134.529724 248.547913,131.349106 248.034714,128.168472 
	C246.007126,131.027740 245.556366,134.395905 243.837173,136.889618 
	C239.652573,142.959473 236.321091,148.900391 241.219986,156.539459 
	C240.696121,156.615784 240.172241,156.692123 239.648361,156.768448 
	C238.565567,155.074677 237.482773,153.380905 235.525467,150.319183 
	C235.277206,153.901352 235.134949,155.953979 234.996338,158.003296 
	C235.000000,157.999985 235.007248,157.992569 234.633713,158.044739 
	C233.286682,160.369888 232.417572,162.694702 231.319656,164.905899 
	C228.317581,170.952042 224.392868,176.693268 222.415756,183.047546 
	C220.784088,188.291580 214.259109,192.619522 218.283875,198.222122 
	C216.719284,199.386963 215.116882,199.980408 214.567444,201.093597 
	C212.287445,205.712921 210.715927,210.721771 208.096970,215.118652 
	C206.578735,217.667542 205.324295,219.434067 207.338364,222.183151 
	C208.121124,223.251556 208.205444,224.831680 208.963745,227.369583 
	C206.759979,225.585693 205.542465,224.600159 203.655960,223.073090 
	C203.195221,225.148621 202.915359,226.646820 202.518463,228.113358 
	C202.255615,229.084564 202.087814,230.292023 201.425858,230.909790 
	C197.736832,234.352493 196.537918,238.998795 198.401123,243.605789 
	C194.016296,247.962708 189.115021,252.095795 189.961578,259.292633 
	C188.789963,260.280792 186.877930,261.142853 186.212997,262.581299 
	C182.954376,269.630981 180.727890,277.259705 176.733719,283.831085 
	C174.137421,288.102631 175.843674,293.238861 171.907242,297.232239 
	C168.872208,300.311218 167.958511,305.437378 165.940704,309.574799 
	C163.751282,314.064148 161.362030,318.455719 159.086853,322.903687 
	C157.962662,325.101471 156.899063,327.330231 155.598404,329.970581 
	C157.018967,329.970581 157.880341,329.970581 159.978210,329.970581 
	C158.356476,334.188477 156.945053,337.859344 155.533646,341.530212 
	C155.072845,341.402527 154.612061,341.274841 154.151260,341.147156 
	C154.151260,339.301208 154.151260,337.455292 154.151260,335.609344 
	C153.726837,335.512482 153.302414,335.415649 152.877975,335.318787 
	C151.248993,340.215302 149.619995,345.111816 147.995499,350.004150 
	C148.000000,350.000000 148.008789,349.990997 147.659836,350.064331 
	C144.355408,357.468536 141.466553,364.828033 138.347534,372.088715 
	C138.014084,372.864929 136.337845,373.064362 135.308258,373.129333 
	C135.913940,370.321808 136.495895,367.916290 137.077866,365.510803 
	C137.077866,365.510803 137.031219,365.512878 137.410004,365.421143 
	C138.837677,362.866119 139.886536,360.402771 140.935394,357.939453 
	C146.118149,345.947144 151.191315,333.905884 156.517456,321.977631 
	C160.990158,311.960754 165.800018,302.094971 170.383606,292.126892 
	C175.639359,280.697113 180.810181,269.228271 186.383865,257.247803 
	C186.814926,256.123199 186.880020,255.527206 186.945129,254.931229 
	C186.945129,254.931229 186.981445,254.991974 187.300735,254.943970 
	C187.732986,254.238754 187.845963,253.581543 187.958923,252.924347 
	C187.958923,252.924347 187.980591,252.991699 188.331039,252.891510 
	C189.140106,251.026215 189.598740,249.261124 190.057343,247.496033 
	C190.057343,247.496033 190.037018,247.513458 190.448975,247.356171 
	C190.929199,246.635223 190.997467,246.071533 191.065735,245.507858 
	C191.065735,245.507858 191.036133,245.520950 191.425217,245.452103 
	C192.568466,243.506927 193.322632,241.630600 194.076797,239.754272 
M154.486893,332.725189 
	C154.734436,332.986816 154.981964,333.248474 155.229523,333.510132 
	C155.336868,333.407288 155.543655,333.221466 155.537140,333.213623 
	C155.306732,332.937561 155.056320,332.678162 154.486893,332.725189 
z"/>
<path fill="#2D96F3" opacity="1.000000" stroke="none" 
	d="
M313.098480,284.077332 
	C308.467041,294.524658 303.840454,304.974121 299.203094,315.418823 
	C291.474213,332.826691 283.762634,350.242310 275.996735,367.633698 
	C271.080109,378.644318 266.094513,389.624329 261.087402,400.594116 
	C260.630249,401.595642 259.790344,402.422485 258.506897,403.683014 
	C213.757019,404.062836 169.628387,404.114716 125.500130,404.009735 
	C124.028694,404.006226 122.561043,402.415344 121.091629,401.564362 
	C125.068604,392.552704 129.045578,383.541077 133.402771,374.137268 
	C134.169601,373.744751 134.556198,373.744354 134.970978,374.167267 
	C131.973160,382.507263 128.947159,390.423920 125.875885,398.459076 
	C126.406822,398.498718 128.058838,398.347961 128.157227,398.670776 
	C129.545746,403.226166 133.246307,401.993774 136.331985,402.002319 
	C154.664017,402.053131 172.996277,402.027466 191.328461,402.027435 
	C211.660522,402.027374 231.993378,402.108398 252.323471,401.907654 
	C254.470322,401.886475 257.351624,400.781311 258.576294,399.175476 
	C260.843445,396.202728 262.878845,392.650818 263.673126,389.045441 
	C265.096954,382.582672 270.784363,376.963409 267.305420,368.481171 
	C269.362762,369.502075 270.600403,370.116211 272.122894,370.871704 
	C273.375458,367.562683 274.803253,364.101257 275.994232,360.560181 
	C277.274933,356.752136 277.172882,351.398468 279.757263,349.359497 
	C283.764282,346.198151 281.467560,343.681244 281.148376,340.740631 
	C281.117798,340.458984 281.384033,340.145111 281.512482,339.846161 
	C284.014679,339.113281 286.245026,337.909454 287.172363,336.054291 
	C290.856445,328.684143 294.182312,321.131927 297.497070,313.584015 
	C297.888916,312.691772 297.462189,311.399506 297.291962,310.311890 
	C297.104950,309.117157 296.775665,307.944702 296.508362,306.762543 
	C297.809448,306.762543 299.110535,306.762543 300.125000,306.762543 
	C300.994965,304.066223 301.591156,301.355316 302.732788,298.897827 
	C304.172272,295.799133 305.983521,292.862244 307.774597,289.941528 
	C309.036865,287.883209 310.532562,285.967987 312.217773,284.009094 
	C312.707153,284.045319 312.902832,284.061310 313.098480,284.077332 
z"/>
<path fill="#2A94F8" opacity="1.000000" stroke="none" 
	d="
M409.036957,70.132248 
	C407.346283,74.632538 405.655609,79.132835 403.613037,84.027924 
	C402.913940,84.410004 402.566742,84.397293 402.154572,83.971832 
	C402.398499,81.710197 402.707397,79.861305 403.132843,77.959991 
	C403.249390,77.907570 403.256287,77.578728 403.256287,77.578728 
	C403.256287,77.578728 402.988129,77.984558 402.566345,77.996223 
	C400.021790,78.332550 397.899750,78.934975 395.776093,78.940765 
	C355.166901,79.051567 314.557556,79.098274 273.948212,79.095963 
	C273.264587,79.095917 272.581024,78.325035 271.649658,77.764824 
	C272.482239,77.081703 272.603821,76.894531 272.725281,76.894630 
	C312.654724,76.927078 352.584351,77.042343 392.513275,76.918983 
	C396.945648,76.905296 401.373810,75.532845 406.254395,74.715073 
	C404.896454,71.916039 403.948181,69.961433 403.412048,68.005173 
	C405.561768,68.713104 407.299347,69.422676 409.036957,70.132248 
z"/>
<path fill="#2A94F8" opacity="1.000000" stroke="none" 
	d="
M394.120239,104.999794 
	C391.092560,111.919472 388.128815,118.867981 385.024384,125.753044 
	C377.711517,141.971771 370.331543,158.160248 362.596497,174.794708 
	C361.548370,175.948227 360.882507,176.667984 360.157349,176.956833 
	C360.270111,175.067719 360.092682,173.449890 360.673492,172.178421 
	C363.499481,165.991974 367.441254,160.146591 369.197113,153.693176 
	C370.605774,148.515839 374.066864,144.780807 375.862701,140.031982 
	C378.214874,133.811844 380.788086,127.669807 383.445129,121.572121 
	C385.656555,116.497101 389.956573,112.192192 389.003998,105.996506 
	C389.000000,106.000092 388.991974,106.008125 389.339844,105.947189 
	C392.092224,101.154900 394.360809,96.347221 396.956879,91.723419 
	C398.315643,89.303368 400.249481,87.206200 401.871643,85.320442 
	C399.557892,91.476479 397.296082,97.275284 395.034302,103.074081 
	C395.034302,103.074089 395.015961,103.005882 394.737671,103.081589 
	C394.346344,103.771469 394.233307,104.385635 394.120239,104.999794 
z"/>
<path fill="#429AF1" opacity="1.000000" stroke="none" 
	d="
M409.361328,69.986137 
	C407.299347,69.422676 405.561768,68.713104 402.943359,67.996689 
	C398.737427,68.007835 395.412292,68.041122 392.087158,68.041481 
	C354.345123,68.045555 316.602936,68.092377 278.861298,67.972572 
	C275.000031,67.960320 272.604767,69.117615 271.134552,72.731766 
	C270.094666,75.288101 268.521606,77.627541 267.141357,79.705223 
	C267.057861,78.867188 267.019531,78.387726 266.981232,77.908272 
	C271.622345,67.001549 271.622345,67.002914 283.777893,67.004082 
	C324.535583,67.007980 365.293304,66.992203 406.050781,67.088394 
	C407.539185,67.091904 411.164490,65.437683 409.361328,69.986137 
z"/>
<path fill="#C0E7FF" opacity="1.000000" stroke="none" 
	d="
M120.740143,401.834290 
	C122.561043,402.415344 124.028694,404.006226 125.500130,404.009735 
	C169.628387,404.114716 213.757019,404.062836 258.339478,404.005676 
	C257.513885,404.307098 256.234772,404.926605 254.954956,404.928101 
	C211.301758,404.978333 167.648453,404.984436 123.995323,404.912659 
	C122.393707,404.910034 118.917656,406.423737 120.740143,401.834290 
z"/>
<path fill="#429AF1" opacity="1.000000" stroke="none" 
	d="
M347.814087,207.018112 
	C345.197296,213.459656 342.634460,219.923843 339.943420,226.334229 
	C338.336426,230.162277 336.528534,233.905975 334.203949,237.975983 
	C332.867706,239.261505 332.138489,240.258636 331.298401,240.848022 
	C331.665985,238.614258 331.929138,236.696320 332.662262,234.979004 
	C335.083862,229.306427 337.675262,223.706360 340.528503,217.972702 
	C343.175049,214.250671 345.494568,210.634399 347.814087,207.018112 
z"/>
<path fill="#2A94F8" opacity="1.000000" stroke="none" 
	d="
M347.962646,206.693878 
	C345.494568,210.634399 343.175049,214.250671 340.277222,217.693451 
	C339.289398,216.067963 338.396362,214.555481 338.568909,213.176331 
	C338.950897,210.123779 339.868408,207.138260 340.596832,203.998840 
	C340.737366,204.057617 341.872070,204.532227 343.003479,205.003525 
	C343.000153,205.000214 342.993774,204.995911 343.047974,205.306732 
	C347.242401,207.376556 346.358276,203.021713 347.849976,201.605759 
	C349.173431,200.349548 350.073303,198.647095 351.317657,197.371674 
	C351.640106,198.131332 351.805054,198.660934 351.970032,199.190521 
	C350.683746,201.583557 349.397461,203.976593 347.962646,206.693878 
z"/>
<path fill="#429AF1" opacity="1.000000" stroke="none" 
	d="
M313.421173,283.908234 
	C312.902832,284.061310 312.707153,284.045319 312.246124,283.604492 
	C311.790131,281.083679 311.599518,278.987701 311.365967,276.419525 
	C312.346191,277.072693 313.031128,277.529083 313.520325,277.855072 
	C315.850861,272.522217 318.171722,267.137726 320.602478,261.803406 
	C320.778015,261.418213 321.754852,261.398132 322.333374,261.625916 
	C322.229736,263.384033 322.151764,264.724579 322.073822,266.065094 
	C322.073822,266.065094 322.004669,266.022827 321.783630,265.843689 
	C321.354492,266.191895 321.146423,266.719269 320.938324,267.246643 
	C318.540192,272.744141 316.142029,278.241638 313.421173,283.908234 
z"/>
<path fill="#429AF1" opacity="1.000000" stroke="none" 
	d="
M251.970734,112.976410 
	C254.267960,106.840965 256.629608,100.753082 259.414490,94.238213 
	C261.229492,91.544830 262.621277,89.278435 264.021942,87.406509 
	C262.228485,97.257507 257.592377,105.385162 252.150574,113.134987 
	C252.150574,113.134987 252.035156,113.023972 251.970734,112.976410 
z"/>
<path fill="#C0E7FF" opacity="1.000000" stroke="none" 
	d="
M395.385468,102.957642 
	C397.296082,97.275284 399.557892,91.476479 401.984039,85.195511 
	C402.148376,84.713356 402.219513,84.384575 402.219513,84.384575 
	C402.566742,84.397293 402.913940,84.410004 403.522339,84.419189 
	C401.101196,90.557503 398.418915,96.699348 395.385468,102.957642 
z"/>
<path fill="#C0E7FF" opacity="1.000000" stroke="none" 
	d="
M360.216644,177.387756 
	C360.882507,176.667984 361.548370,175.948227 362.508331,175.165527 
	C360.790405,179.995148 358.778412,184.887726 356.332520,189.859589 
	C355.898682,189.938873 355.699310,189.800156 355.689270,189.452911 
	C355.781128,188.394516 355.883057,187.683350 356.078461,186.836914 
	C356.171906,186.701645 356.171448,186.372849 356.406738,186.097534 
	C357.558350,183.603622 358.474670,181.384995 359.557739,178.978516 
	C359.888550,178.323013 360.052612,177.855392 360.216644,177.387756 
z"/>
<path fill="#C0E7FF" opacity="1.000000" stroke="none" 
	d="
M352.312378,199.034088 
	C351.805054,198.660934 351.640106,198.131332 351.303772,197.359375 
	C351.132416,197.117004 351.115570,197.088516 351.392853,196.893250 
	C353.013214,194.398712 354.356262,192.099442 355.699310,189.800156 
	C355.699310,189.800156 355.898682,189.938873 355.998047,190.008682 
	C354.949829,193.011536 353.802277,195.944580 352.312378,199.034088 
z"/>
<path fill="#C0E7FF" opacity="1.000000" stroke="none" 
	d="
M134.942810,373.743958 
	C134.556198,373.744354 134.169601,373.744751 133.493195,373.759979 
	C134.293488,371.181915 135.383560,368.588989 136.775742,365.753448 
	C136.495895,367.916290 135.913940,370.321808 135.203400,373.146973 
	C135.074799,373.566650 134.942810,373.743958 134.942810,373.743958 
z"/>
<path fill="#C0E7FF" opacity="1.000000" stroke="none" 
	d="
M264.013062,87.012039 
	C262.621277,89.278435 261.229492,91.544830 259.506531,93.868561 
	C260.523376,90.683731 261.871368,87.441566 263.643555,84.117348 
	C264.067749,84.035294 264.248291,84.160248 264.275818,84.511589 
	C264.206268,85.579369 264.109192,86.295815 264.006714,87.006523 
	C264.001373,87.000786 264.013062,87.012032 264.013062,87.012039 
z"/>
<path fill="#C0E7FF" opacity="1.000000" stroke="none" 
	d="
M322.420959,265.936951 
	C322.151764,264.724579 322.229736,263.384033 322.479492,261.453949 
	C322.816528,260.605713 322.927399,260.325531 323.238983,259.854919 
	C324.114502,258.652191 324.734955,257.618347 325.547791,256.710388 
	C325.740204,256.836273 326.118439,257.097717 326.118439,257.097717 
	C325.001648,260.001404 323.884888,262.905090 322.420959,265.936951 
z"/>
<path fill="#C0E7FF" opacity="1.000000" stroke="none" 
	d="
M140.607941,358.086029 
	C139.886536,360.402771 138.837677,362.866119 137.426208,365.437988 
	C138.135895,363.108551 139.208176,360.670563 140.607941,358.086029 
z"/>
<path fill="#C0E7FF" opacity="1.000000" stroke="none" 
	d="
M331.409271,241.255768 
	C332.138489,240.258636 332.867706,239.261505 333.876099,238.127518 
	C333.358368,240.265289 332.561432,242.539932 331.395691,244.921082 
	C331.026855,245.027618 330.979126,244.988892 330.914154,244.614975 
	C331.006500,243.252151 331.163788,242.263245 331.343018,241.269501 
	C331.364899,241.264648 331.409271,241.255768 331.409271,241.255768 
z"/>
<path fill="#C0E7FF" opacity="1.000000" stroke="none" 
	d="
M266.635132,78.019455 
	C267.019531,78.387726 267.057861,78.867188 267.046448,79.886368 
	C266.996704,80.426094 266.907471,80.825920 266.662140,81.028946 
	C265.693970,82.208061 264.971130,83.184158 264.248291,84.160248 
	C264.248291,84.160248 264.067749,84.035294 263.978088,83.972000 
	C264.688599,81.982681 265.488831,80.056664 266.635132,78.019455 
z"/>
<path fill="#C0E7FF" opacity="1.000000" stroke="none" 
	d="
M193.735352,239.936584 
	C193.322632,241.630600 192.568466,243.506927 191.431488,245.467010 
	C191.830414,243.740158 192.612167,241.929535 193.735352,239.936584 
z"/>
<path fill="#C0E7FF" opacity="1.000000" stroke="none" 
	d="
M189.758560,247.748886 
	C189.598740,249.261124 189.140106,251.026215 188.295975,252.896179 
	C188.426895,251.334610 188.943329,249.668167 189.758560,247.748886 
z"/>
<path fill="#C0E7FF" opacity="1.000000" stroke="none" 
	d="
M328.087555,252.079102 
	C327.979156,252.994537 327.870758,253.909973 327.229675,254.815094 
	C326.551605,254.707306 326.406219,254.609833 326.385132,254.218704 
	C326.997711,253.278748 327.485992,252.632416 328.003601,252.008148 
	C328.032898,252.030197 328.087555,252.079102 328.087555,252.079102 
z"/>
<path fill="#C0E7FF" opacity="1.000000" stroke="none" 
	d="
M331.048889,245.049026 
	C330.966064,245.989792 330.861206,246.909149 330.355164,247.905731 
	C329.954010,247.982941 329.791718,247.884079 329.725220,247.553009 
	C330.098877,246.477585 330.539001,245.733231 330.979126,244.988892 
	C330.979126,244.988892 331.026855,245.027618 331.048889,245.049026 
z"/>
<path fill="#C0E7FF" opacity="1.000000" stroke="none" 
	d="
M321.208740,267.137543 
	C321.146423,266.719269 321.354492,266.191895 321.810303,265.874420 
	C321.865082,266.399017 321.672089,266.713745 321.208740,267.137543 
z"/>
<path fill="#C0E7FF" opacity="1.000000" stroke="none" 
	d="
M326.910706,254.957260 
	C326.984467,255.701920 326.844513,256.294098 326.411499,256.992004 
	C326.118439,257.097717 325.740204,256.836273 325.640350,256.446594 
	C325.780609,255.542023 326.020721,255.027176 326.260803,254.512329 
	C326.406219,254.609833 326.551605,254.707306 326.910706,254.957260 
z"/>
<path fill="#C0E7FF" opacity="1.000000" stroke="none" 
	d="
M186.629120,255.035553 
	C186.880020,255.527206 186.814926,256.123199 186.461365,256.884857 
	C186.219635,256.413635 186.266388,255.776764 186.629120,255.035553 
z"/>
<path fill="#C0E7FF" opacity="1.000000" stroke="none" 
	d="
M394.409332,104.893433 
	C394.233307,104.385635 394.346344,103.771469 394.772675,103.076851 
	C394.956787,103.593285 394.827576,104.190178 394.409332,104.893433 
z"/>
<path fill="#C0E7FF" opacity="1.000000" stroke="none" 
	d="
M187.646927,253.021851 
	C187.845963,253.581543 187.732986,254.238754 187.265381,254.942780 
	C187.052109,254.366180 187.193512,253.742767 187.646927,253.021851 
z"/>
<path fill="#C0E7FF" opacity="1.000000" stroke="none" 
	d="
M329.095215,250.086395 
	C328.957062,250.683533 328.818878,251.280670 328.384155,251.978455 
	C328.087555,252.079102 328.032898,252.030197 327.918091,251.689438 
	C328.190948,250.893234 328.578644,250.437775 328.999817,250.006729 
	C329.033356,250.031143 329.095215,250.086395 329.095215,250.086395 
z"/>
<path fill="#C0E7FF" opacity="1.000000" stroke="none" 
	d="
M330.030853,248.038818 
	C329.967468,248.690262 329.827240,249.285843 329.391113,249.983917 
	C329.095215,250.086395 329.033356,250.031143 328.885193,249.699310 
	C329.088593,248.873001 329.440155,248.378540 329.791718,247.884079 
	C329.791718,247.884079 329.954010,247.982941 330.030853,248.038818 
z"/>
<path fill="#C0E7FF" opacity="1.000000" stroke="none" 
	d="
M190.743881,245.762161 
	C190.997467,246.071533 190.929199,246.635223 190.449341,247.369568 
	C190.165833,247.032318 190.293930,246.524384 190.743881,245.762161 
z"/>
<path fill="#0A93FE" opacity="1.000000" stroke="none" 
	d="
M266.907471,80.825912 
	C266.907471,80.825920 266.996704,80.426094 267.091614,80.244949 
	C268.521606,77.627541 270.094666,75.288101 271.134552,72.731766 
	C272.604767,69.117615 275.000031,67.960320 278.861298,67.972572 
	C316.602936,68.092377 354.345123,68.045555 392.087158,68.041481 
	C395.412292,68.041122 398.737427,68.007835 402.531250,67.998337 
	C403.948181,69.961433 404.896454,71.916039 406.254395,74.715073 
	C401.373810,75.532845 396.945648,76.905296 392.513275,76.918983 
	C352.584351,77.042343 312.654724,76.927078 272.725281,76.894630 
	C272.603821,76.894531 272.482239,77.081703 271.649658,77.764824 
	C272.581024,78.325035 273.264587,79.095917 273.948212,79.095963 
	C314.557556,79.098274 355.166901,79.051567 395.776093,78.940765 
	C397.899750,78.934975 400.021790,78.332550 402.572479,78.003998 
	C403.000397,78.000114 403.016296,78.012421 403.016296,78.012421 
	C402.707397,79.861305 402.398499,81.710197 402.154572,83.971832 
	C402.219513,84.384575 402.148376,84.713356 402.036011,84.838287 
	C400.249481,87.206200 398.315643,89.303368 396.956879,91.723419 
	C394.360809,96.347221 392.092224,101.154900 389.335510,105.559593 
	C388.804657,104.016869 388.626007,102.800804 388.447357,101.584740 
	C387.843872,101.850464 387.240356,102.116180 386.636871,102.381905 
	C387.427246,103.585579 388.217621,104.789246 389.007996,105.992920 
	C389.956573,112.192192 385.656555,116.497101 383.445129,121.572121 
	C380.788086,127.669807 378.214874,133.811844 375.862701,140.031982 
	C374.066864,144.780807 370.605774,148.515839 369.197113,153.693176 
	C367.441254,160.146591 363.499481,165.991974 360.673492,172.178421 
	C360.092682,173.449890 360.270111,175.067719 360.157349,176.956833 
	C360.052612,177.855392 359.888550,178.323013 359.219177,178.937805 
	C357.094879,177.598648 355.475891,176.112335 353.856903,174.626022 
	C353.279297,176.765182 353.615662,178.681702 354.154419,180.539551 
	C354.726746,182.512985 355.490997,184.430771 356.171448,186.372849 
	C356.171448,186.372849 356.171906,186.701645 355.718567,186.891663 
	C350.827087,189.150452 351.555969,193.361923 351.115570,197.088516 
	C351.115570,197.088516 351.132416,197.117004 351.146301,197.129303 
	C350.073303,198.647095 349.173431,200.349548 347.849976,201.605759 
	C346.358276,203.021713 347.242401,207.376556 343.353180,205.128723 
	C346.592163,201.337769 344.021149,199.572922 341.242218,197.831238 
	C341.830414,200.223099 342.418610,202.614975 343.006775,205.006836 
	C341.872070,204.532227 340.737366,204.057617 340.596832,203.998840 
	C339.868408,207.138260 338.950897,210.123779 338.568909,213.176331 
	C338.396362,214.555481 339.289398,216.067963 339.950195,217.799210 
	C337.675262,223.706360 335.083862,229.306427 332.662262,234.979004 
	C331.929138,236.696320 331.665985,238.614258 331.298401,240.848022 
	C331.409271,241.255768 331.364899,241.264648 330.973633,241.309052 
	C324.470123,246.120132 324.251526,253.285446 322.983887,260.023804 
	C322.927399,260.325531 322.816528,260.605713 322.505188,261.036346 
	C321.754852,261.398132 320.778015,261.418213 320.602478,261.803406 
	C318.171722,267.137726 315.850861,272.522217 313.520325,277.855072 
	C313.031128,277.529083 312.346191,277.072693 311.365967,276.419525 
	C311.599518,278.987701 311.790131,281.083679 311.952393,283.584259 
	C310.532562,285.967987 309.036865,287.883209 307.774597,289.941528 
	C305.983521,292.862244 304.172272,295.799133 302.732788,298.897827 
	C301.591156,301.355316 300.994965,304.066223 300.125000,306.762543 
	C299.110535,306.762543 297.809448,306.762543 296.508362,306.762543 
	C296.775665,307.944702 297.104950,309.117157 297.291962,310.311890 
	C297.462189,311.399506 297.888916,312.691772 297.497070,313.584015 
	C294.182312,321.131927 290.856445,328.684143 287.172363,336.054291 
	C286.245026,337.909454 284.014679,339.113281 281.512482,339.846161 
	C281.384033,340.145111 281.117798,340.458984 281.148376,340.740631 
	C281.467560,343.681244 283.764282,346.198151 279.757263,349.359497 
	C277.172882,351.398468 277.274933,356.752136 275.994232,360.560181 
	C274.803253,364.101257 273.375458,367.562683 272.122894,370.871704 
	C270.600403,370.116211 269.362762,369.502075 267.305420,368.481171 
	C270.784363,376.963409 265.096954,382.582672 263.673126,389.045441 
	C262.878845,392.650818 260.843445,396.202728 258.576294,399.175476 
	C257.351624,400.781311 254.470322,401.886475 252.323471,401.907654 
	C231.993378,402.108398 211.660522,402.027374 191.328461,402.027435 
	C172.996277,402.027466 154.664017,402.053131 136.331985,402.002319 
	C133.246307,401.993774 129.545746,403.226166 128.157227,398.670776 
	C128.058838,398.347961 126.406822,398.498718 125.875885,398.459076 
	C128.947159,390.423920 131.973160,382.507263 134.970978,374.167267 
	C134.942810,373.743958 135.074799,373.566650 135.179657,373.549011 
	C136.337845,373.064362 138.014084,372.864929 138.347534,372.088715 
	C141.466553,364.828033 144.355408,357.468536 147.674515,350.410614 
	C148.596130,351.420288 149.154099,352.156952 149.712067,352.893646 
	C150.085602,352.471558 150.459137,352.049469 150.832672,351.627380 
	C149.885452,351.087708 148.938217,350.548004 147.990997,350.008331 
	C149.619995,345.111816 151.248993,340.215302 152.877975,335.318787 
	C153.302414,335.415649 153.726837,335.512482 154.151260,335.609344 
	C154.151260,337.455292 154.151260,339.301208 154.151260,341.147156 
	C154.612061,341.274841 155.072845,341.402527 155.533646,341.530212 
	C156.945053,337.859344 158.356476,334.188477 159.978210,329.970581 
	C157.880341,329.970581 157.018967,329.970581 155.598404,329.970581 
	C156.899063,327.330231 157.962662,325.101471 159.086853,322.903687 
	C161.362030,318.455719 163.751282,314.064148 165.940704,309.574799 
	C167.958511,305.437378 168.872208,300.311218 171.907242,297.232239 
	C175.843674,293.238861 174.137421,288.102631 176.733719,283.831085 
	C180.727890,277.259705 182.954376,269.630981 186.212997,262.581299 
	C186.877930,261.142853 188.789963,260.280792 189.961578,259.292633 
	C189.115021,252.095795 194.016296,247.962708 198.401123,243.605789 
	C196.537918,238.998795 197.736832,234.352493 201.425858,230.909790 
	C202.087814,230.292023 202.255615,229.084564 202.518463,228.113358 
	C202.915359,226.646820 203.195221,225.148621 203.655960,223.073090 
	C205.542465,224.600159 206.759979,225.585693 208.963745,227.369583 
	C208.205444,224.831680 208.121124,223.251556 207.338364,222.183151 
	C205.324295,219.434067 206.578735,217.667542 208.096970,215.118652 
	C210.715927,210.721771 212.287445,205.712921 214.567444,201.093597 
	C215.116882,199.980408 216.719284,199.386963 218.283875,198.222122 
	C214.259109,192.619522 220.784088,188.291580 222.415756,183.047546 
	C224.392868,176.693268 228.317581,170.952042 231.319656,164.905899 
	C232.417572,162.694702 233.286682,160.369888 234.642395,158.339478 
	C235.231750,159.106018 235.438889,159.630005 235.646027,160.153992 
	C235.960129,159.871170 236.274231,159.588348 236.588333,159.305527 
	C236.056442,158.872559 235.524567,158.439575 234.992676,158.006607 
	C235.134949,155.953979 235.277206,153.901352 235.525467,150.319183 
	C237.482773,153.380905 238.565567,155.074677 239.648361,156.768448 
	C240.172241,156.692123 240.696121,156.615784 241.219986,156.539459 
	C236.321091,148.900391 239.652573,142.959473 243.837173,136.889618 
	C245.556366,134.395905 246.007126,131.027740 248.034714,128.168472 
	C248.547913,131.349106 249.061096,134.529724 249.574295,137.710358 
	C250.070969,137.725967 250.567627,137.741577 251.064301,137.757187 
	C251.233505,136.610123 251.655502,135.433365 251.524872,134.321503 
	C251.120895,130.883087 250.226334,127.479401 250.103394,124.041443 
	C250.049789,122.542458 251.724121,121.055626 252.045578,119.449562 
	C252.404114,117.658127 252.117020,115.737473 252.130753,113.504028 
	C257.592377,105.385162 262.228485,97.257507 264.021942,87.406509 
	C264.013062,87.012032 264.001373,87.000786 264.362732,86.934479 
	C265.451874,84.854088 266.179657,82.839996 266.907471,80.825912 
M330.169678,230.212540 
	C329.674713,228.805618 329.380463,227.269577 328.595337,226.049347 
	C328.233368,225.486771 326.902618,225.377792 326.030396,225.424377 
	C325.791992,225.437103 325.233246,226.966370 325.488190,227.443207 
	C326.807922,229.911499 328.343903,232.264191 329.804474,234.657196 
	C330.134125,234.502136 330.463806,234.347061 330.793488,234.191986 
	C330.675079,233.102600 330.556641,232.013214 330.169678,230.212540 
M169.068115,310.810852 
	C168.388168,313.935638 167.708206,317.060425 167.028244,320.185211 
	C167.618576,320.321808 168.208908,320.458374 168.799225,320.594971 
	C169.513794,317.481293 170.271255,314.375732 170.862778,311.238861 
	C170.910873,310.983704 169.824585,310.514618 169.068115,310.810852 
M359.485474,164.954376 
	C359.087006,164.124481 358.688538,163.294601 358.268707,162.420227 
	C356.482513,163.538422 355.049072,164.435806 353.009521,165.712631 
	C356.787384,167.141052 358.845825,167.919357 361.474091,168.913101 
	C360.752716,167.480347 360.265320,166.512344 359.485474,164.954376 
M203.229919,237.454926 
	C203.868393,235.993347 204.506851,234.531769 205.145325,233.070206 
	C200.158035,235.730850 199.706589,237.073257 201.564743,240.104202 
	C201.963623,239.358017 202.346802,238.641174 203.229919,237.454926 
M292.458313,302.283325 
	C292.961945,302.595062 293.465546,302.906830 293.969147,303.218597 
	C295.014832,300.813965 296.060547,298.409302 297.106262,296.004669 
	C296.530151,295.761414 295.954041,295.518158 295.377930,295.274902 
	C294.475098,297.398956 293.572235,299.522980 292.458313,302.283325 
M232.041061,169.797302 
	C232.532471,171.689377 233.023880,173.581451 233.515289,175.473526 
	C234.034988,175.354004 234.554672,175.234467 235.074371,175.114929 
	C234.783203,172.949997 234.492035,170.785065 234.200867,168.620117 
	C233.490082,168.769211 232.779297,168.918289 232.041061,169.797302 
M372.624268,114.478020 
	C369.435730,117.452454 371.266357,119.073402 375.107452,120.127007 
	C374.508850,118.279320 373.910248,116.431633 372.624268,114.478020 
M185.592270,273.290680 
	C186.680359,271.836090 187.768463,270.381500 188.856552,268.926910 
	C188.223816,268.599396 187.591080,268.271881 186.958359,267.944397 
	C186.378433,269.549988 185.798523,271.155548 185.592270,273.290680 
M157.025803,347.772217 
	C157.205841,348.965729 157.385895,350.159271 157.565933,351.352783 
	C157.972183,351.286346 158.378448,351.219910 158.784698,351.153473 
	C158.784698,349.577728 158.784698,348.002014 158.784698,346.426270 
	C158.210938,346.630249 157.637177,346.834259 157.025803,347.772217 
M253.245026,124.799812 
	C253.794891,123.999611 254.344772,123.199402 254.894653,122.399200 
	C254.447281,122.147217 253.999908,121.895233 253.552536,121.643257 
	C253.397980,122.481384 253.243423,123.319519 253.245026,124.799812 
M227.676743,175.659012 
	C228.490997,175.958878 229.305267,176.258743 230.119522,176.558609 
	C230.179932,176.124756 230.240341,175.690918 230.300751,175.257065 
	C229.572937,175.257065 228.845123,175.257065 227.676743,175.659012 
M217.524429,208.178116 
	C217.121780,207.609741 216.719131,207.041351 216.316483,206.472977 
	C216.030396,206.748428 215.744293,207.023865 215.458191,207.299286 
	C216.016418,207.718018 216.574646,208.136749 217.524429,208.178116 
M339.204254,194.485535 
	C339.598938,194.760956 339.993591,195.036392 340.388275,195.311813 
	C340.493713,194.903320 340.599121,194.494843 340.704559,194.086349 
	C340.244476,194.037628 339.784363,193.988892 339.204254,194.485535 
M176.674347,300.150482 
	C176.627701,299.737549 176.581055,299.324615 176.534409,298.911652 
	C176.187805,299.079468 175.841202,299.247284 175.494629,299.415131 
	C175.766846,299.776367 176.039062,300.137604 176.674347,300.150482 
M346.488464,194.262100 
	C346.202362,194.061752 345.916229,193.861404 345.630127,193.661087 
	C345.814178,193.959305 345.998230,194.257523 346.488464,194.262100 
z"/>
<path fill="#0A93FE" opacity="1.000000" stroke="none" 
	d="
M154.647797,332.570801 
	C155.056320,332.678162 155.306732,332.937561 155.537140,333.213623 
	C155.543655,333.221466 155.336868,333.407288 155.229523,333.510132 
	C154.981964,333.248474 154.734436,332.986816 154.647797,332.570801 
z"/>
<path fill="#0A93FE" opacity="1.000000" stroke="none" 
	d="
M402.994263,77.992340 
	C402.988129,77.984558 403.256287,77.578728 403.256287,77.578728 
	C403.256287,77.578728 403.249390,77.907570 403.132843,77.959991 
	C403.016296,78.012421 403.000397,78.000114 402.994263,77.992340 
z"/>
<path fill="#2A94F8" opacity="1.000000" stroke="none" 
	d="
M356.406738,186.097534 
	C355.490997,184.430771 354.726746,182.512985 354.154419,180.539551 
	C353.615662,178.681702 353.279297,176.765182 353.856903,174.626022 
	C355.475891,176.112335 357.094879,177.598648 359.052429,179.125671 
	C358.474670,181.384995 357.558350,183.603622 356.406738,186.097534 
z"/>
<path fill="#2A94F8" opacity="1.000000" stroke="none" 
	d="
M351.392853,196.893250 
	C351.555969,193.361923 350.827087,189.150452 355.625122,187.026932 
	C355.883057,187.683350 355.781128,188.394516 355.689270,189.452911 
	C354.356262,192.099442 353.013214,194.398712 351.392853,196.893250 
z"/>
<path fill="#429AF1" opacity="1.000000" stroke="none" 
	d="
M266.662109,81.028938 
	C266.179657,82.839996 265.451874,84.854088 264.368103,86.940216 
	C264.109192,86.295815 264.206268,85.579369 264.275818,84.511597 
	C264.971130,83.184158 265.693970,82.208061 266.662109,81.028938 
z"/>
<path fill="#429AF1" opacity="1.000000" stroke="none" 
	d="
M323.238983,259.854919 
	C324.251526,253.285446 324.470123,246.120132 330.951752,241.313904 
	C331.163788,242.263245 331.006500,243.252151 330.914154,244.614975 
	C330.539001,245.733231 330.098877,246.477585 329.725220,247.553009 
	C329.440155,248.378540 329.088593,248.873001 328.851685,249.674896 
	C328.578644,250.437775 328.190948,250.893234 327.888763,251.667389 
	C327.485992,252.632416 326.997711,253.278748 326.385132,254.218689 
	C326.020721,255.027176 325.780609,255.542023 325.447937,256.320679 
	C324.734955,257.618347 324.114502,258.652191 323.238983,259.854919 
z"/>
<path fill="#2A94F8" opacity="1.000000" stroke="none" 
	d="
M330.303955,230.568176 
	C330.556641,232.013214 330.675079,233.102600 330.793488,234.191986 
	C330.463806,234.347061 330.134125,234.502136 329.804474,234.657196 
	C328.343903,232.264191 326.807922,229.911499 325.488190,227.443207 
	C325.233246,226.966370 325.791992,225.437103 326.030396,225.424377 
	C326.902618,225.377792 328.233368,225.486771 328.595337,226.049347 
	C329.380463,227.269577 329.674713,228.805618 330.303955,230.568176 
z"/>
<path fill="#2D96F3" opacity="1.000000" stroke="none" 
	d="
M169.166763,310.477905 
	C169.824585,310.514618 170.910873,310.983704 170.862778,311.238861 
	C170.271255,314.375732 169.513794,317.481293 168.799225,320.594971 
	C168.208908,320.458374 167.618576,320.321808 167.028244,320.185211 
	C167.708206,317.060425 168.388168,313.935638 169.166763,310.477905 
z"/>
<path fill="#2A94F8" opacity="1.000000" stroke="none" 
	d="
M359.631714,165.249359 
	C360.265320,166.512344 360.752716,167.480347 361.474091,168.913101 
	C358.845825,167.919357 356.787384,167.141052 353.009521,165.712631 
	C355.049072,164.435806 356.482513,163.538422 358.268707,162.420227 
	C358.688538,163.294601 359.087006,164.124481 359.631714,165.249359 
z"/>
<path fill="#2D96F3" opacity="1.000000" stroke="none" 
	d="
M202.979950,237.689636 
	C202.346802,238.641174 201.963623,239.358017 201.564743,240.104202 
	C199.706589,237.073257 200.158035,235.730850 205.145325,233.070206 
	C204.506851,234.531769 203.868393,235.993347 202.979950,237.689636 
z"/>
<path fill="#2D96F3" opacity="1.000000" stroke="none" 
	d="
M292.563843,301.965149 
	C293.572235,299.522980 294.475098,297.398956 295.377930,295.274902 
	C295.954041,295.518158 296.530151,295.761414 297.106262,296.004669 
	C296.060547,298.409302 295.014832,300.813965 293.969147,303.218597 
	C293.465546,302.906830 292.961945,302.595062 292.563843,301.965149 
z"/>
<path fill="#2D96F3" opacity="1.000000" stroke="none" 
	d="
M232.054779,169.432343 
	C232.779297,168.918289 233.490082,168.769211 234.200867,168.620117 
	C234.492035,170.785065 234.783203,172.949997 235.074371,175.114929 
	C234.554672,175.234467 234.034988,175.354004 233.515289,175.473526 
	C233.023880,173.581451 232.532471,171.689377 232.054779,169.432343 
z"/>
<path fill="#2A94F8" opacity="1.000000" stroke="none" 
	d="
M372.967957,114.530975 
	C373.910248,116.431633 374.508850,118.279320 375.107452,120.127007 
	C371.266357,119.073402 369.435730,117.452454 372.967957,114.530975 
z"/>
<path fill="#2A94F8" opacity="1.000000" stroke="none" 
	d="
M343.003479,205.003525 
	C342.418610,202.614975 341.830414,200.223099 341.242218,197.831238 
	C344.021149,199.572922 346.592163,201.337769 343.298981,204.817902 
	C342.993774,204.995911 343.000153,205.000214 343.003479,205.003525 
z"/>
<path fill="#2D96F3" opacity="1.000000" stroke="none" 
	d="
M185.405441,273.025909 
	C185.798523,271.155548 186.378433,269.549988 186.958359,267.944397 
	C187.591080,268.271881 188.223816,268.599396 188.856552,268.926910 
	C187.768463,270.381500 186.680359,271.836090 185.405441,273.025909 
z"/>
<path fill="#2D96F3" opacity="1.000000" stroke="none" 
	d="
M157.044617,347.405243 
	C157.637177,346.834259 158.210938,346.630249 158.784698,346.426270 
	C158.784698,348.002014 158.784698,349.577728 158.784698,351.153473 
	C158.378448,351.219910 157.972183,351.286346 157.565933,351.352783 
	C157.385895,350.159271 157.205841,348.965729 157.044617,347.405243 
z"/>
<path fill="#2A94F8" opacity="1.000000" stroke="none" 
	d="
M389.003998,105.996506 
	C388.217621,104.789246 387.427246,103.585579 386.636871,102.381905 
	C387.240356,102.116180 387.843872,101.850464 388.447357,101.584740 
	C388.626007,102.800804 388.804657,104.016869 388.987610,105.620529 
	C388.991974,106.008125 389.000000,106.000092 389.003998,105.996506 
z"/>
<path fill="#2D96F3" opacity="1.000000" stroke="none" 
	d="
M253.166946,124.478729 
	C253.243423,123.319519 253.397980,122.481384 253.552536,121.643257 
	C253.999908,121.895233 254.447281,122.147217 254.894653,122.399200 
	C254.344772,123.199402 253.794891,123.999611 253.166946,124.478729 
z"/>
<path fill="#2D96F3" opacity="1.000000" stroke="none" 
	d="
M227.897034,175.458038 
	C228.845123,175.257065 229.572937,175.257065 230.300751,175.257065 
	C230.240341,175.690918 230.179932,176.124756 230.119522,176.558609 
	C229.305267,176.258743 228.490997,175.958878 227.897034,175.458038 
z"/>
<path fill="#2D96F3" opacity="1.000000" stroke="none" 
	d="
M147.995499,350.004150 
	C148.938217,350.548004 149.885452,351.087708 150.832672,351.627380 
	C150.459137,352.049469 150.085602,352.471558 149.712067,352.893646 
	C149.154099,352.156952 148.596130,351.420288 148.023468,350.337280 
	C148.008789,349.990997 148.000000,350.000000 147.995499,350.004150 
z"/>
<path fill="#2D96F3" opacity="1.000000" stroke="none" 
	d="
M217.328644,208.366791 
	C216.574646,208.136749 216.016418,207.718018 215.458191,207.299286 
	C215.744293,207.023865 216.030396,206.748428 216.316483,206.472977 
	C216.719131,207.041351 217.121780,207.609741 217.328644,208.366791 
z"/>
<path fill="#2A94F8" opacity="1.000000" stroke="none" 
	d="
M339.264282,194.212860 
	C339.784363,193.988892 340.244476,194.037628 340.704559,194.086349 
	C340.599121,194.494843 340.493713,194.903320 340.388275,195.311813 
	C339.993591,195.036392 339.598938,194.760956 339.264282,194.212860 
z"/>
<path fill="#2D96F3" opacity="1.000000" stroke="none" 
	d="
M176.492813,300.324646 
	C176.039062,300.137604 175.766846,299.776367 175.494614,299.415100 
	C175.841202,299.247284 176.187805,299.079468 176.534409,298.911682 
	C176.581055,299.324615 176.627701,299.737549 176.492813,300.324646 
z"/>
<path fill="#2D96F3" opacity="1.000000" stroke="none" 
	d="
M234.996338,158.003296 
	C235.524567,158.439575 236.056442,158.872559 236.588333,159.305527 
	C236.274231,159.588348 235.960129,159.871170 235.646027,160.153992 
	C235.438889,159.630005 235.231750,159.106018 235.015930,158.287308 
	C235.007248,157.992569 235.000000,157.999985 234.996338,158.003296 
z"/>
<path fill="#2A94F8" opacity="1.000000" stroke="none" 
	d="
M346.335388,194.408920 
	C345.998230,194.257523 345.814178,193.959305 345.630127,193.661072 
	C345.916229,193.861404 346.202362,194.061752 346.335388,194.408920 
z"/>
</svg>